<mxfile host="app.diagrams.net" modified="2020-09-22T03:11:48.562Z" agent="5.0 (Windows NT 10.0; Win64; x64) AppleWebKit/537.36 (KHTML, like Gecko) Chrome/85.0.4183.102 Safari/537.36 Edg/85.0.564.51" etag="yMOs7Uffr5xRekQk_eIx" version="13.7.3" type="github">
  <diagram id="shUDwsKFDdsXacW1vGoj" name="Page-1">
    <mxGraphModel dx="1038" dy="548" grid="1" gridSize="10" guides="1" tooltips="1" connect="1" arrows="1" fold="1" page="1" pageScale="1" pageWidth="827" pageHeight="1169" math="0" shadow="0">
      <root>
        <mxCell id="0" />
        <mxCell id="1" parent="0" />
        <mxCell id="ImCiJTd56db0JIZPay8f-1" value="" style="endArrow=none;html=1;" edge="1" parent="1">
          <mxGeometry width="50" height="50" relative="1" as="geometry">
            <mxPoint x="80" y="180" as="sourcePoint" />
            <mxPoint x="760" y="180" as="targetPoint" />
          </mxGeometry>
        </mxCell>
        <mxCell id="ImCiJTd56db0JIZPay8f-3" value="" style="endArrow=none;html=1;" edge="1" parent="1">
          <mxGeometry width="50" height="50" relative="1" as="geometry">
            <mxPoint x="90" y="490" as="sourcePoint" />
            <mxPoint x="760" y="490" as="targetPoint" />
          </mxGeometry>
        </mxCell>
        <mxCell id="ImCiJTd56db0JIZPay8f-4" value="TCLHOME&lt;br&gt;&lt;br&gt;（新加坡）" style="rounded=0;whiteSpace=wrap;html=1;fillColor=#ffe6cc;strokeColor=#d79b00;" vertex="1" parent="1">
          <mxGeometry x="130" y="520" width="120" height="60" as="geometry" />
        </mxCell>
        <mxCell id="ImCiJTd56db0JIZPay8f-5" value="官网&lt;br&gt;&lt;br&gt;（新加坡）" style="rounded=0;whiteSpace=wrap;html=1;fillColor=#ffe6cc;strokeColor=#d79b00;" vertex="1" parent="1">
          <mxGeometry x="300" y="520" width="120" height="60" as="geometry" />
        </mxCell>
        <mxCell id="ImCiJTd56db0JIZPay8f-6" value="雷鸟TV端&lt;br&gt;&lt;br&gt;（各个国家）" style="rounded=0;whiteSpace=wrap;html=1;fillColor=#ffe6cc;strokeColor=#d79b00;" vertex="1" parent="1">
          <mxGeometry x="460" y="520" width="120" height="60" as="geometry" />
        </mxCell>
        <mxCell id="ImCiJTd56db0JIZPay8f-8" value="用户埋点数据" style="text;html=1;strokeColor=none;fillColor=none;align=center;verticalAlign=middle;whiteSpace=wrap;rounded=0;fontStyle=1;fontSize=16;" vertex="1" parent="1">
          <mxGeometry x="20" y="540" width="60" height="20" as="geometry" />
        </mxCell>
        <mxCell id="ImCiJTd56db0JIZPay8f-11" value="&lt;span style=&quot;font-size: 12px&quot;&gt;CRM&lt;br&gt;（?）&lt;br&gt;&lt;/span&gt;" style="shape=cylinder3;whiteSpace=wrap;html=1;boundedLbl=1;backgroundOutline=1;size=15;fontSize=16;fillColor=#ffe6cc;strokeColor=#d79b00;" vertex="1" parent="1">
          <mxGeometry x="650" y="510" width="60" height="80" as="geometry" />
        </mxCell>
        <mxCell id="ImCiJTd56db0JIZPay8f-17" value="" style="shape=singleArrow;direction=north;whiteSpace=wrap;html=1;fontSize=16;fillColor=#dae8fc;strokeColor=#6c8ebf;" vertex="1" parent="1">
          <mxGeometry x="354" y="450" width="60" height="60" as="geometry" />
        </mxCell>
        <mxCell id="ImCiJTd56db0JIZPay8f-18" value="数据仓库（aws redshift）" style="shape=datastore;whiteSpace=wrap;html=1;fontSize=16;fillColor=#ffe6cc;strokeColor=#d79b00;" vertex="1" parent="1">
          <mxGeometry x="242" y="360" width="284" height="70" as="geometry" />
        </mxCell>
        <mxCell id="ImCiJTd56db0JIZPay8f-19" value="数据处理" style="text;html=1;strokeColor=none;fillColor=none;align=center;verticalAlign=middle;whiteSpace=wrap;rounded=0;fontStyle=1;fontSize=16;" vertex="1" parent="1">
          <mxGeometry x="10" y="390" width="60" height="20" as="geometry" />
        </mxCell>
        <mxCell id="ImCiJTd56db0JIZPay8f-22" value="华润通 （新加坡）" style="rounded=0;whiteSpace=wrap;html=1;fontSize=16;fillColor=#1ba1e2;strokeColor=#006EAF;fontColor=#ffffff;" vertex="1" parent="1">
          <mxGeometry x="159" y="200" width="450" height="70" as="geometry" />
        </mxCell>
        <mxCell id="ImCiJTd56db0JIZPay8f-25" value="数据可视化分析平台" style="rounded=0;whiteSpace=wrap;html=1;fontSize=16;fillColor=#dae8fc;strokeColor=#6c8ebf;" vertex="1" parent="1">
          <mxGeometry x="810" y="340" width="200" height="70" as="geometry" />
        </mxCell>
        <mxCell id="ImCiJTd56db0JIZPay8f-27" value="1" style="text;html=1;strokeColor=#666666;align=center;verticalAlign=middle;whiteSpace=wrap;rounded=1;fontSize=16;fillColor=#f5f5f5;fontColor=#333333;" vertex="1" parent="1">
          <mxGeometry x="160" y="590" width="30" height="20" as="geometry" />
        </mxCell>
        <mxCell id="ImCiJTd56db0JIZPay8f-28" value="2" style="text;html=1;strokeColor=#666666;align=center;verticalAlign=middle;whiteSpace=wrap;rounded=1;fontSize=16;fillColor=#f5f5f5;fontColor=#333333;" vertex="1" parent="1">
          <mxGeometry x="345" y="590" width="30" height="20" as="geometry" />
        </mxCell>
        <mxCell id="ImCiJTd56db0JIZPay8f-29" value="3" style="text;html=1;strokeColor=#666666;align=center;verticalAlign=middle;whiteSpace=wrap;rounded=1;fontSize=16;fillColor=#f5f5f5;fontColor=#333333;" vertex="1" parent="1">
          <mxGeometry x="496" y="590" width="30" height="20" as="geometry" />
        </mxCell>
        <mxCell id="ImCiJTd56db0JIZPay8f-30" value="4" style="text;html=1;strokeColor=#666666;align=center;verticalAlign=middle;whiteSpace=wrap;rounded=1;fontSize=16;fillColor=#f5f5f5;fontColor=#333333;" vertex="1" parent="1">
          <mxGeometry x="665" y="600" width="30" height="20" as="geometry" />
        </mxCell>
        <mxCell id="ImCiJTd56db0JIZPay8f-31" value="数据交互" style="text;html=1;strokeColor=none;fillColor=none;align=center;verticalAlign=middle;whiteSpace=wrap;rounded=0;fontStyle=1;fontSize=16;" vertex="1" parent="1">
          <mxGeometry x="10" y="230" width="60" height="20" as="geometry" />
        </mxCell>
        <mxCell id="ImCiJTd56db0JIZPay8f-34" value="" style="endArrow=none;html=1;" edge="1" parent="1">
          <mxGeometry width="50" height="50" relative="1" as="geometry">
            <mxPoint x="80" y="320" as="sourcePoint" />
            <mxPoint x="760" y="320" as="targetPoint" />
          </mxGeometry>
        </mxCell>
        <mxCell id="ImCiJTd56db0JIZPay8f-35" value="数据采集" style="text;html=1;strokeColor=none;fillColor=none;align=center;verticalAlign=middle;whiteSpace=wrap;rounded=0;fontStyle=1;fontSize=16;" vertex="1" parent="1">
          <mxGeometry x="410" y="470" width="60" height="20" as="geometry" />
        </mxCell>
        <mxCell id="ImCiJTd56db0JIZPay8f-38" value="数据交互" style="text;html=1;strokeColor=none;fillColor=none;align=center;verticalAlign=middle;whiteSpace=wrap;rounded=0;fontStyle=1;fontSize=16;" vertex="1" parent="1">
          <mxGeometry x="430" y="300" width="60" height="20" as="geometry" />
        </mxCell>
        <mxCell id="ImCiJTd56db0JIZPay8f-41" value="" style="shape=singleArrow;whiteSpace=wrap;html=1;gradientColor=none;fontSize=16;fillColor=#dae8fc;strokeColor=#6c8ebf;" vertex="1" parent="1">
          <mxGeometry x="665" y="350" width="100" height="60" as="geometry" />
        </mxCell>
        <mxCell id="ImCiJTd56db0JIZPay8f-42" value="" style="shape=singleArrow;direction=north;whiteSpace=wrap;html=1;fontSize=16;fillColor=#dae8fc;strokeColor=#6c8ebf;" vertex="1" parent="1">
          <mxGeometry x="350" y="280" width="60" height="60" as="geometry" />
        </mxCell>
        <mxCell id="ImCiJTd56db0JIZPay8f-43" value="结果输出" style="text;html=1;strokeColor=none;fillColor=none;align=center;verticalAlign=middle;whiteSpace=wrap;rounded=0;fontStyle=1;fontSize=16;" vertex="1" parent="1">
          <mxGeometry x="660" y="340" width="70" height="20" as="geometry" />
        </mxCell>
      </root>
    </mxGraphModel>
  </diagram>
</mxfile>
